<?xml version="1.0" encoding="iso-8859-1"?>
<!-- Uploaded to: SVG Repo, www.svgrepo.com, Generator: SVG Repo Mixer Tools -->
<svg height="800px" width="800px" version="1.1" id="Layer_1" xmlns="http://www.w3.org/2000/svg" xmlns:xlink="http://www.w3.org/1999/xlink" 
	 viewBox="0 0 512 512" xml:space="preserve">
<circle style="fill:#FFD200;" cx="256.002" cy="256.002" r="248.139"/>
<path style="fill:#FE5D17;" d="M159.948,256c0-110.51,72.261-204.102,172.094-236.219C308.073,12.071,282.532,7.863,256,7.863
	C118.958,7.863,7.863,118.958,7.863,256S118.958,504.137,256,504.137c26.532,0,52.073-4.207,76.042-11.918
	C232.208,460.102,159.948,366.51,159.948,256z"/>
<circle style="fill:#FFFFFF;" cx="159.953" cy="167.953" r="40.02"/>
<path style="fill:#F7F7F7;" d="M151.943,167.952c0-16.403,9.89-30.462,24.013-36.644c-4.909-2.148-10.307-3.379-16.009-3.379
	c-22.104,0-40.022,17.918-40.022,40.022s17.918,40.022,40.022,40.022c5.7,0,11.1-1.231,16.009-3.379
	C161.833,198.413,151.943,184.355,151.943,167.952z"/>
<circle style="fill:#FFFFFF;" cx="352.051" cy="167.953" r="40.02"/>
<path style="fill:#F7F7F7;" d="M344.048,167.952c0-16.403,9.89-30.462,24.013-36.644c-4.909-2.148-10.308-3.379-16.009-3.379
	c-22.104,0-40.022,17.918-40.022,40.022s17.918,40.022,40.022,40.022c5.701,0,11.1-1.231,16.009-3.379
	C353.939,198.413,344.048,184.355,344.048,167.952z"/>
<path d="M256,512c-68.38,0-132.667-26.629-181.018-74.98C26.628,388.668,0,324.38,0,256s26.628-132.668,74.982-181.02
	C123.333,26.629,187.62,0,256,0s132.667,26.629,181.018,74.981C485.371,123.332,512,187.62,512,256s-26.628,132.668-74.982,181.02
	C388.667,485.371,324.38,512,256,512z M256,15.727c-64.179,0-124.517,24.993-169.898,70.375S15.727,191.821,15.727,256
	S40.72,380.517,86.102,425.898S191.821,496.273,256,496.273s124.517-24.993,169.898-70.375S496.273,320.179,496.273,256
	S471.28,131.483,425.898,86.101S320.179,15.727,256,15.727z"/>
<path d="M159.948,215.837c-26.404,0-47.885-21.482-47.885-47.885s21.481-47.885,47.885-47.885s47.885,21.481,47.885,47.885
	S186.351,215.837,159.948,215.837z M159.948,135.793c-17.732,0-32.158,14.426-32.158,32.158s14.427,32.158,32.158,32.158
	s32.158-14.427,32.158-32.158S177.679,135.793,159.948,135.793z"/>
<path d="M352.052,215.837c-26.404,0-47.885-21.482-47.885-47.885s21.481-47.885,47.885-47.885c26.404,0,47.885,21.481,47.885,47.885
	S378.457,215.837,352.052,215.837z M352.052,135.793c-17.732,0-32.158,14.426-32.158,32.158s14.427,32.158,32.158,32.158
	c17.732,0,32.158-14.427,32.158-32.158S369.784,135.793,352.052,135.793z"/>
<path d="M424.802,264.388H392.3v15.727h7.672C395.619,355.889,332.713,415.947,256,415.947s-139.62-60.058-143.971-135.832h7.672
	v-15.727H87.198v15.727h9.074c4.383,84.201,74.349,151.559,159.727,151.559s155.345-67.358,159.727-151.559h9.074V264.388z"/>
<g>
	<path style="fill:#FFFFFF;" d="M348.4,78.293c-5.008-2.61-10.187-5.034-15.389-7.203l6.051-14.516
		c5.613,2.34,11.202,4.955,16.605,7.771L348.4,78.293z"/>
	<path style="fill:#FFFFFF;" d="M317.602,65.401c-12.47-4.027-25.416-6.831-38.48-8.332l1.796-15.624
		c14.093,1.62,28.063,4.645,41.518,8.991L317.602,65.401z"/>
	<path style="fill:#FFFFFF;" d="M178.854,71.146l-6.063-14.512C199.175,45.611,227.171,40.022,256,40.022v15.727
		C229.262,55.749,203.307,60.929,178.854,71.146z"/>
</g>
</svg>